<svg xmlns="http://www.w3.org/2000/svg" xmlns:xlink="http://www.w3.org/1999/xlink" width="500" zoomAndPan="magnify" viewBox="0 0 375 374.999991" height="500" preserveAspectRatio="xMidYMid meet" version="1.0"><defs><clipPath id="7469b36a15"><path d="M 8.667969 14.082031 L 366 14.082031 L 366 362 L 8.667969 362 Z M 8.667969 14.082031 " clip-rule="nonzero"/></clipPath></defs><path fill="#000000" d="M 282.398438 174.460938 C 282.398438 174.460938 282.46875 174.53125 282.46875 174.53125 C 283.828125 176.390625 291.335938 186.6875 282.398438 174.460938 Z M 282.398438 174.460938 " fill-opacity="1" fill-rule="nonzero"/><path fill="#000000" d="M 282.398438 174.386719 C 282.398438 174.386719 282.46875 174.460938 282.46875 174.460938 C 282.253906 174.171875 282.253906 174.171875 282.398438 174.386719 Z M 282.398438 174.386719 " fill-opacity="1" fill-rule="nonzero"/><path fill="#000000" d="M 156.402344 97.515625 C 156.332031 97.515625 156.332031 97.515625 156.257812 97.589844 C 156.1875 97.589844 156.042969 97.589844 156.402344 97.515625 Z M 156.402344 97.515625 " fill-opacity="1" fill-rule="nonzero"/><path fill="#000000" d="M 59.082031 321.121094 C 59.082031 321.121094 59.007812 321.121094 59.082031 321.121094 C 58.867188 321.121094 58.507812 321.265625 59.082031 321.121094 Z M 59.082031 321.121094 " fill-opacity="1" fill-rule="nonzero"/><path fill="#000000" d="M 275.960938 347.007812 C 275.460938 347.007812 274.890625 347.007812 274.53125 346.9375 C 274.316406 346.9375 274.101562 346.9375 274.03125 346.9375 L 103.414062 346.578125 C 103.199219 346.578125 102.914062 346.578125 102.484375 346.648438 C 101.914062 346.722656 101.199219 346.792969 100.554688 346.792969 C 99.769531 346.792969 99.339844 346.722656 98.980469 346.507812 C 97.550781 345.578125 97.839844 342.933594 97.980469 340.570312 C 98.050781 339.855469 98.125 339.214844 98.050781 338.855469 C 97.480469 332.992188 96.765625 326.84375 96.050781 320.835938 C 94.90625 311.183594 93.761719 301.242188 93.191406 291.804688 C 92.832031 285.226562 92.117188 278.503906 91.402344 271.996094 C 91.042969 268.707031 90.6875 265.347656 90.402344 262.054688 C 90.117188 259.269531 89.328125 250.617188 97.050781 248.683594 C 99.554688 248.042969 102.199219 247.96875 104.632812 247.96875 L 106.632812 247.96875 C 119.363281 247.96875 132.160156 247.96875 144.890625 247.96875 C 157.617188 247.96875 170.417969 247.96875 183.144531 247.96875 C 195.875 247.96875 208.675781 247.96875 221.402344 247.96875 L 272.886719 247.96875 C 282.253906 247.96875 287.332031 251.257812 287.832031 257.695312 C 288.191406 262.054688 287.546875 266.703125 286.902344 271.210938 C 286.6875 272.855469 286.472656 274.5 286.257812 276.070312 L 285.113281 286.511719 L 284.828125 288.800781 C 284.6875 290.445312 284.472656 292.089844 284.257812 293.664062 C 284.183594 294.164062 284.183594 294.59375 284.113281 294.949219 C 284.042969 295.449219 284.042969 295.878906 283.972656 296.378906 L 279.394531 337.925781 C 279.324219 338.710938 279.179688 339.714844 279.035156 340.785156 C 278.824219 342.859375 278.609375 345.003906 278.320312 346.007812 C 278.179688 346.863281 277.105469 347.007812 275.960938 347.007812 Z M 275.960938 347.007812 " fill-opacity="1" fill-rule="nonzero"/><path fill="#d9d9d9" d="M 98.910156 338.785156 C 97.480469 323.625 94.976562 307.035156 94.046875 291.804688 C 93.476562 281.9375 92.1875 271.925781 91.257812 262.054688 C 90.757812 256.835938 91.257812 250.972656 97.335938 249.398438 C 100.414062 248.613281 103.628906 248.757812 106.777344 248.757812 C 145.03125 248.683594 183.289062 248.757812 221.546875 248.757812 C 238.636719 248.757812 255.796875 248.757812 272.886719 248.757812 C 279.179688 248.757812 286.472656 250.113281 287.117188 257.835938 C 287.617188 263.703125 286.1875 270.207031 285.542969 276.070312 C 285.1875 279.574219 284.757812 283.007812 284.398438 286.511719 C 284.113281 288.800781 283.898438 291.304688 283.613281 293.664062 C 283.46875 294.878906 283.46875 295.449219 283.328125 296.378906 C 281.824219 310.253906 280.253906 324.125 278.75 337.996094 C 278.464844 340.144531 278.105469 344.503906 277.75 346.007812 C 277.605469 346.648438 274.675781 346.363281 274.03125 346.363281 C 267.667969 346.363281 261.304688 346.363281 254.9375 346.363281 C 232.914062 346.292969 210.890625 346.292969 188.867188 346.222656 C 166.84375 346.148438 144.816406 346.148438 122.867188 346.078125 C 116.429688 346.078125 109.921875 346.078125 103.488281 346.078125 C 102.699219 346.078125 100.199219 346.507812 99.484375 346.078125 C 97.980469 344.933594 98.980469 340.070312 98.910156 338.785156 Z M 98.910156 338.785156 " fill-opacity="1" fill-rule="nonzero"/><path fill="#000000" d="M 35.339844 361.667969 C 24.613281 361.667969 18.75 361.59375 17.464844 361.453125 C 17.105469 361.378906 16.890625 361.378906 16.675781 361.378906 C 15.960938 361.378906 15.820312 361.238281 15.246094 360.664062 L 15.105469 360.523438 C 13.960938 359.308594 13.171875 357.089844 12.53125 355.160156 C 12.242188 354.300781 11.957031 353.515625 11.742188 352.941406 C 11.3125 351.941406 10.957031 350.867188 10.597656 349.867188 C 10.242188 348.9375 9.957031 347.9375 9.527344 346.9375 C 9.457031 346.722656 9.457031 346.433594 9.597656 346.292969 C 9.742188 346.078125 9.957031 346.007812 10.171875 346.007812 C 12.101562 346.007812 31.695312 346.148438 50.570312 346.222656 C 69.519531 346.363281 89.042969 346.433594 90.972656 346.433594 C 95.40625 346.433594 199.734375 346.792969 249.863281 346.792969 C 256.65625 346.792969 262.449219 346.792969 266.878906 346.792969 C 274.175781 346.792969 314.289062 346.722656 342.175781 346.722656 C 353.046875 346.722656 361.628906 346.722656 364.703125 346.722656 C 364.917969 346.722656 365.132812 346.792969 365.273438 347.007812 C 365.417969 347.222656 365.488281 347.363281 365.417969 347.578125 L 364.273438 353.371094 C 364.203125 353.585938 364.203125 354.085938 364.128906 354.585938 C 363.914062 356.734375 363.703125 360.378906 362.984375 360.953125 C 362.773438 361.167969 362.414062 361.238281 361.914062 361.238281 C 361.554688 361.238281 361.199219 361.238281 360.914062 361.167969 C 360.769531 361.167969 360.625 361.167969 360.554688 361.167969 C 358.265625 361.167969 103.058594 361.308594 103.058594 361.308594 C 99.554688 361.308594 59.511719 361.667969 35.339844 361.667969 Z M 35.339844 361.667969 " fill-opacity="1" fill-rule="nonzero"/><path fill="#9b674e" d="M 364.773438 347.363281 C 364.417969 349.296875 363.988281 351.226562 363.628906 353.15625 C 363.414062 354.160156 363.34375 359.734375 362.628906 360.308594 C 362.34375 360.523438 360.914062 360.308594 360.554688 360.308594 C 356.050781 360.378906 22.542969 361.167969 17.535156 360.664062 C 16.105469 360.523438 16.535156 360.878906 15.675781 359.949219 C 14.175781 358.304688 13.316406 354.585938 12.457031 352.511719 C 11.601562 350.511719 11.101562 348.507812 10.242188 346.507812 C 14.101562 346.507812 87.253906 346.9375 91.117188 346.9375 C 92.761719 346.9375 229.125 347.4375 267.023438 347.292969 C 277.605469 347.363281 354.191406 347.363281 364.773438 347.363281 Z M 364.773438 347.363281 " fill-opacity="1" fill-rule="nonzero"/><path fill="#000000" d="M 50.285156 265.847656 C 50.355469 265.773438 50.355469 265.632812 50.429688 265.558594 C 50.355469 265.703125 50.285156 265.773438 50.285156 265.847656 Z M 50.285156 265.847656 " fill-opacity="1" fill-rule="nonzero"/><path fill="#000000" d="M 57.292969 322.050781 C 52.359375 322.050781 48.285156 317.046875 46.710938 312.183594 C 46.496094 311.539062 46.351562 310.894531 46.28125 310.179688 C 45.996094 310.179688 45.78125 310.039062 45.636719 309.824219 C 45.207031 309.035156 44.78125 308.179688 44.351562 307.390625 C 42.347656 303.601562 40.203125 299.597656 38.988281 295.378906 C 37.199219 289.371094 39.703125 282.578125 44.921875 279.289062 C 44.996094 279.289062 44.996094 279.21875 45.066406 279.21875 C 45.136719 279.21875 45.207031 279.148438 45.28125 279.148438 C 45.496094 279.074219 45.851562 278.859375 46.210938 278.71875 C 46.066406 278.574219 45.996094 278.289062 45.996094 278.074219 C 46.136719 277.429688 46.351562 276.714844 46.496094 276.070312 C 47.355469 272.640625 48.210938 269.0625 49.570312 265.703125 C 49.570312 265.632812 49.640625 265.632812 49.640625 265.558594 C 49.640625 265.488281 49.714844 265.417969 49.714844 265.347656 C 55.078125 255.40625 59.152344 244.539062 63.085938 234.027344 C 66.304688 225.300781 69.664062 216.363281 73.8125 207.855469 L 85.683594 183.398438 C 89.257812 176.03125 92.691406 169.023438 99.410156 163.660156 C 105.417969 158.871094 112.640625 155.582031 119.71875 152.433594 C 120.71875 152.007812 121.648438 151.578125 122.652344 151.078125 C 125.367188 149.859375 128.300781 148.71875 131.160156 147.574219 C 137.167969 145.285156 143.386719 142.851562 148.320312 139.207031 C 148.464844 139.136719 148.609375 139.0625 148.75 139.0625 C 148.75 139.0625 148.824219 139.0625 148.824219 139.0625 C 149.035156 137.203125 151.109375 134.628906 153.613281 131.769531 C 154.328125 130.984375 154.902344 130.269531 155.257812 129.839844 C 156.042969 128.765625 156.761719 127.695312 157.476562 126.621094 C 158.546875 125.046875 159.621094 123.476562 160.765625 121.972656 C 160.90625 121.757812 161.121094 121.6875 161.335938 121.6875 C 161.40625 121.6875 161.480469 121.6875 161.550781 121.6875 C 161.835938 121.757812 162.050781 122.042969 162.050781 122.332031 C 162.121094 123.6875 162.121094 125.046875 162.121094 126.40625 C 162.121094 128.835938 162.121094 131.414062 162.550781 133.773438 C 163.265625 137.203125 164.839844 140.492188 166.34375 143.710938 L 167.34375 145.714844 C 169.34375 149.859375 171.347656 154.152344 174.066406 157.871094 C 174.277344 158.15625 174.207031 158.511719 173.992188 158.800781 C 173.921875 158.871094 173.921875 158.871094 173.851562 158.941406 C 175.136719 159.800781 176.136719 161.085938 176.925781 162.230469 C 179.285156 165.808594 181.074219 169.667969 182.859375 173.457031 C 183.289062 174.316406 183.648438 175.175781 184.074219 176.03125 C 184.21875 176.246094 184.433594 176.675781 184.648438 177.105469 C 185.363281 178.394531 186.007812 179.464844 186.148438 180.25 C 187.578125 178.25 189.152344 175.675781 190.582031 173.386719 L 191.296875 172.242188 C 192.941406 169.667969 194.800781 166.59375 196.445312 163.304688 C 196.589844 163.019531 196.730469 162.589844 196.945312 162.160156 C 197.234375 161.375 197.589844 160.585938 197.949219 160.085938 C 198.378906 159.515625 198.519531 159.230469 198.519531 159.15625 C 198.589844 159.015625 198.734375 158.871094 198.878906 158.800781 C 198.734375 158.585938 198.734375 158.371094 198.804688 158.085938 C 200.164062 155.152344 201.738281 152.292969 203.238281 149.503906 C 207.242188 142.210938 210.675781 135.34375 211.390625 127.121094 L 211.390625 123.617188 C 211.390625 123.261719 211.605469 123.046875 211.890625 122.902344 C 211.964844 122.902344 212.035156 122.902344 212.105469 122.902344 C 212.320312 122.902344 212.605469 123.046875 212.75 123.261719 C 214.324219 125.90625 216.109375 128.480469 217.828125 130.839844 C 218.328125 131.484375 218.898438 132.269531 219.542969 132.984375 C 221.332031 135.128906 223.40625 137.632812 223.691406 140.066406 C 223.832031 140.066406 223.90625 140.066406 224.046875 140.136719 C 233.273438 145.285156 242.710938 148.789062 252.722656 152.578125 C 253.9375 153.007812 255.152344 153.507812 256.296875 153.9375 C 261.875 156.082031 266.808594 158.726562 271.027344 161.875 C 271.242188 162.015625 271.527344 162.230469 271.816406 162.445312 C 274.390625 164.304688 276.964844 166.308594 277.25 168.023438 C 277.25 168.09375 277.25 168.09375 277.25 168.167969 C 277.320312 168.09375 277.464844 168.09375 277.535156 168.023438 C 277.535156 168.023438 277.605469 168.023438 277.605469 168.023438 C 277.820312 168.023438 277.964844 168.09375 278.109375 168.238281 C 279.824219 170.027344 281.398438 172.027344 282.898438 174.03125 L 283.042969 174.171875 C 293.050781 187.976562 299.058594 204.351562 304.921875 220.152344 C 306.566406 224.515625 308.210938 229.089844 309.929688 233.453125 C 311.359375 237.027344 312.71875 240.605469 314.003906 244.109375 C 316.363281 250.472656 318.867188 257.050781 321.582031 263.34375 C 324.800781 270.851562 328.804688 277.429688 333.023438 284.4375 L 333.097656 284.582031 C 333.238281 284.867188 333.238281 285.226562 332.953125 285.511719 C 334.742188 287.296875 335.886719 289.371094 335.742188 292.519531 C 335.742188 292.519531 335.742188 292.589844 335.742188 292.589844 C 335.742188 292.734375 335.671875 293.304688 335.597656 293.804688 C 334.667969 299.453125 331.308594 304.890625 328.304688 309.609375 C 327.734375 310.539062 327.160156 311.398438 326.660156 312.328125 C 326.519531 312.539062 326.304688 312.683594 326.015625 312.683594 C 325.945312 312.683594 325.875 312.683594 325.800781 312.613281 C 325.730469 312.613281 325.660156 312.539062 325.660156 312.539062 C 325.660156 312.683594 325.730469 312.828125 325.730469 312.898438 C 325.875 313.183594 325.875 313.46875 325.660156 313.757812 C 325.445312 314.042969 325.160156 314.328125 324.945312 314.613281 C 323.371094 316.546875 322.011719 318.191406 319.511719 319.335938 C 319.4375 319.40625 319.296875 319.40625 319.222656 319.40625 C 319.082031 319.40625 318.9375 319.335938 318.796875 319.261719 C 318.582031 319.121094 318.507812 318.832031 318.507812 318.546875 C 319.796875 312.398438 318.4375 306.75 314.71875 302.101562 C 310.285156 296.667969 302.5625 293.234375 294.625 293.234375 C 291.050781 293.234375 287.6875 293.878906 284.542969 295.234375 C 284.472656 295.308594 284.328125 295.308594 284.257812 295.308594 C 284.042969 295.308594 283.828125 295.234375 283.683594 295.023438 C 283.46875 294.808594 283.46875 294.449219 283.613281 294.164062 C 283.757812 293.949219 283.898438 293.734375 284.113281 293.519531 C 283.828125 293.375 283.683594 293.089844 283.683594 292.804688 C 283.828125 291.589844 283.898438 290.375 284.042969 289.15625 C 284.257812 286.726562 284.542969 284.152344 284.902344 281.722656 C 285.042969 280.863281 285.328125 280.148438 285.6875 279.503906 C 285.6875 279.503906 285.6875 279.503906 285.617188 279.503906 C 285.328125 279.363281 285.1875 279.074219 285.257812 278.789062 L 286.402344 268.132812 C 286.472656 267.347656 286.617188 266.488281 286.761719 265.558594 C 287.332031 261.339844 288.046875 256.621094 285.972656 253.402344 C 283.972656 250.328125 279.753906 248.757812 273.386719 248.757812 C 273.101562 248.757812 272.746094 248.757812 272.316406 248.757812 C 271.742188 248.757812 271.027344 248.828125 270.382812 248.828125 C 269.882812 248.828125 269.527344 248.828125 269.167969 248.757812 C 269.027344 248.757812 268.882812 248.683594 268.8125 248.613281 C 268.3125 248.183594 267.808594 246.898438 266.59375 243.964844 C 266.308594 243.320312 266.09375 242.75 265.953125 242.390625 C 265.164062 240.53125 264.449219 238.746094 263.664062 236.242188 C 263.378906 235.457031 263.089844 234.667969 262.734375 233.882812 C 262.234375 232.738281 261.730469 231.523438 261.445312 230.308594 C 261.445312 231.164062 261.375 231.953125 261.304688 232.808594 C 261.160156 235.167969 261.160156 237.601562 261.160156 239.960938 C 261.160156 240.675781 261.160156 241.320312 261.160156 242.035156 C 261.160156 242.535156 261.089844 243.464844 260.945312 244.539062 C 260.804688 245.609375 260.589844 247.324219 260.730469 247.753906 C 260.804688 247.96875 260.804688 248.183594 260.660156 248.398438 C 260.515625 248.613281 260.300781 248.757812 260.015625 248.757812 L 246.644531 248.757812 C 246 248.757812 244.355469 248.757812 243.210938 248.613281 C 243.070312 248.613281 242.855469 248.542969 242.78125 248.398438 C 242.066406 248.683594 240.710938 248.757812 238.207031 248.757812 L 216.46875 248.757812 C 216.46875 248.757812 214.464844 248.757812 213.824219 248.757812 C 213.320312 248.757812 212.894531 248.757812 212.679688 248.757812 C 212.535156 248.757812 212.320312 248.683594 212.179688 248.542969 C 212.035156 248.683594 211.890625 248.757812 211.75 248.757812 C 211.535156 248.757812 211.035156 248.757812 210.175781 248.757812 C 209.316406 248.757812 208.246094 248.757812 207.386719 248.757812 C 206.886719 248.757812 206.527344 248.757812 206.3125 248.757812 L 183.789062 248.757812 C 183.503906 248.757812 183.21875 248.542969 183.144531 248.253906 C 183.144531 248.328125 183.074219 248.46875 183.003906 248.542969 C 182.859375 248.683594 182.71875 248.757812 182.503906 248.757812 L 116.789062 248.757812 C 116.574219 248.757812 116.429688 248.757812 116.285156 248.757812 C 116.214844 248.757812 116.074219 248.757812 116 248.757812 C 115.859375 248.757812 115.5 248.757812 115.214844 248.46875 C 114.929688 248.183594 114.929688 247.828125 114.929688 247.398438 C 114.929688 247.039062 114.929688 246.539062 114.855469 245.824219 C 114.570312 242.75 114.140625 239.746094 113.5 236.671875 C 113.355469 237.957031 113.140625 239.175781 112.855469 240.316406 C 112.425781 242.320312 111.210938 246.324219 110.28125 248.328125 C 110.136719 248.542969 109.921875 248.757812 109.636719 248.757812 L 105.988281 248.757812 C 104.988281 248.757812 104.128906 248.757812 103.488281 248.757812 L 102.988281 248.757812 C 99.269531 248.828125 94.691406 248.898438 92.402344 251.832031 C 89.6875 255.261719 90.1875 259.695312 90.617188 263.914062 C 90.6875 264.558594 90.757812 265.203125 90.832031 265.773438 L 92.117188 279.21875 C 92.117188 279.574219 91.972656 279.863281 91.617188 279.933594 C 91.546875 279.933594 91.472656 279.933594 91.402344 279.933594 C 91.402344 279.933594 91.332031 279.933594 91.332031 279.933594 C 92.1875 281.363281 92.476562 282.9375 92.691406 284.867188 C 92.761719 285.511719 92.832031 286.15625 92.976562 286.796875 C 93.332031 289.15625 93.691406 291.660156 92.691406 293.878906 C 92.617188 294.09375 92.332031 294.304688 92.046875 294.304688 C 92.046875 294.304688 92.046875 294.304688 91.972656 294.304688 C 91.761719 294.304688 91.472656 294.164062 91.332031 293.949219 C 91.332031 293.949219 91.332031 293.949219 91.332031 293.878906 C 91.1875 294.019531 90.972656 294.164062 90.757812 294.164062 C 90.6875 294.164062 90.542969 294.164062 90.472656 294.09375 C 87.613281 292.875 84.679688 292.234375 81.890625 292.234375 C 80.246094 292.234375 78.601562 292.445312 77.03125 292.875 C 71.59375 294.378906 65.445312 296.378906 61.226562 300.027344 C 57.652344 303.171875 54.074219 308.894531 55.863281 314.902344 C 56.222656 316.042969 56.9375 318.40625 57.4375 318.976562 C 57.652344 319.191406 57.9375 319.335938 58.222656 319.546875 C 58.796875 319.90625 59.4375 320.265625 59.4375 321.121094 C 59.4375 321.335938 59.367188 321.480469 59.222656 321.621094 C 59.152344 321.695312 59.007812 321.765625 58.867188 321.835938 C 58.582031 321.980469 57.9375 322.050781 57.292969 322.050781 Z M 183.933594 184.542969 C 183.71875 184.828125 183.574219 185.1875 183.503906 185.398438 C 183.21875 186.542969 183.359375 188.046875 183.433594 189.476562 C 183.503906 190.191406 183.503906 190.835938 183.503906 191.476562 L 183.503906 241.75 C 183.503906 241.75 183.503906 189.832031 183.503906 189.832031 C 183.503906 189.476562 183.503906 189.046875 183.433594 188.617188 C 183.359375 187.6875 183.359375 186.6875 183.503906 185.828125 C 183.574219 185.328125 183.71875 184.898438 183.933594 184.542969 Z M 261.804688 224.730469 C 261.875 224.300781 261.945312 223.871094 262.019531 223.371094 C 262.019531 223.371094 261.945312 223.371094 261.945312 223.371094 C 261.945312 223.371094 261.875 223.371094 261.875 223.371094 C 261.875 223.371094 261.804688 223.371094 261.804688 223.371094 C 261.804688 223.800781 261.804688 224.230469 261.804688 224.730469 Z M 261.804688 224.730469 " fill-opacity="1" fill-rule="nonzero"/><path fill="#f4510e" d="M 269.667969 193.195312 C 271.742188 185.113281 273.746094 176.03125 277.679688 168.597656 C 279.394531 170.382812 280.96875 172.3125 282.398438 174.316406 C 282.398438 174.386719 282.46875 174.386719 282.539062 174.460938 C 295.269531 192.050781 301.492188 213.644531 309.355469 233.597656 C 313.289062 243.535156 316.792969 253.691406 321.082031 263.558594 C 324.371094 271.136719 328.375 277.789062 332.597656 284.796875 C 325.230469 279.003906 316.9375 272.355469 307.066406 272.925781 C 300.347656 273.355469 291.121094 273.855469 286.042969 278.644531 C 286.402344 275.070312 286.832031 271.566406 287.1875 267.992188 C 287.6875 263.34375 289.261719 256.980469 286.617188 252.832031 C 283.898438 248.683594 277.964844 247.828125 273.460938 247.828125 C 272.601562 247.828125 270.597656 247.96875 269.382812 247.898438 C 268.8125 247.398438 267.308594 243.105469 266.738281 241.960938 C 265.808594 239.890625 265.164062 238.03125 264.449219 235.882812 C 263.589844 233.238281 262.019531 230.808594 262.089844 228.019531 C 262.234375 223.800781 263.589844 219.652344 264.519531 215.503906 C 266.164062 208.066406 267.453125 201.488281 269.667969 193.195312 Z M 216.683594 175.746094 C 214.035156 172.386719 211.675781 169.023438 209.460938 165.378906 C 208.246094 163.375 207.242188 162.089844 205.171875 161.160156 C 204.027344 160.660156 201.023438 159.230469 199.808594 159.441406 C 199.304688 159.515625 199.164062 159.371094 199.164062 159.230469 C 199.09375 159.371094 198.878906 159.730469 198.519531 160.300781 C 198.019531 161.085938 197.519531 162.660156 197.089844 163.449219 C 195.515625 166.523438 193.730469 169.527344 191.941406 172.386719 C 190.152344 175.316406 187.867188 179.035156 186.007812 181.46875 C 185.792969 182.753906 184.433594 184.398438 184.21875 185.902344 C 184.003906 187.117188 184.21875 188.617188 184.21875 189.832031 C 184.21875 201.5625 184.21875 213.359375 184.21875 225.085938 C 184.21875 230.59375 184.21875 236.171875 184.21875 241.675781 C 184.21875 242.75 184.148438 246.46875 184.148438 247.96875 C 188.222656 247.96875 192.65625 247.96875 196.945312 247.96875 C 200.164062 247.96875 203.382812 247.96875 206.671875 247.96875 C 207.457031 247.96875 211.320312 248.039062 212.105469 247.96875 C 212.105469 247.46875 212.105469 244.679688 212.105469 244.25 C 212.105469 241.320312 212.105469 238.316406 212.105469 235.382812 C 212.105469 232.667969 212.105469 229.878906 212.105469 227.160156 C 212.105469 225.800781 211.675781 223.941406 212.105469 222.796875 C 212.679688 221.082031 212.820312 221.582031 215.039062 221.582031 C 217.398438 221.582031 219.757812 221.582031 222.046875 221.582031 C 228.050781 221.582031 234.058594 221.582031 239.992188 221.582031 C 243.496094 221.582031 243.496094 221.441406 243.496094 225.085938 C 243.496094 230.878906 243.496094 236.601562 243.496094 242.390625 C 243.496094 243.320312 243.640625 246.824219 243.496094 247.898438 C 244.570312 248.039062 246.214844 248.039062 246.859375 248.039062 C 251.222656 248.039062 256.082031 248.039062 260.230469 248.039062 C 259.945312 247.46875 260.660156 243.320312 260.660156 242.105469 C 260.660156 239.03125 260.589844 235.882812 260.730469 232.808594 C 261.375 221.511719 260.445312 210.070312 261.375 198.84375 C 261.730469 194.625 262.089844 190.621094 262.089844 186.328125 C 262.089844 184.257812 261.875 182.183594 261.875 180.109375 C 261.875 178.964844 261.945312 177.605469 262.089844 176.390625 C 262.089844 176.105469 262.660156 174.960938 262.734375 175.390625 C 262.949219 179.394531 262.804688 182.753906 262.804688 186.902344 C 262.804688 191.121094 262.519531 194.910156 262.089844 198.988281 C 261.160156 208.210938 262.875 213.574219 261.875 222.796875 C 262.519531 216.71875 264.019531 213.933594 265.378906 207.996094 C 268.097656 196.339844 270.8125 184.257812 274.746094 172.886719 C 275.175781 171.671875 276.675781 169.167969 276.460938 168.167969 C 276.105469 166.234375 272.03125 163.589844 270.527344 162.445312 C 266.09375 159.085938 261.160156 156.582031 256.011719 154.582031 C 244.929688 150.363281 234.058594 146.5 223.617188 140.707031 C 223.546875 144.070312 223.90625 147.429688 223.90625 150.789062 C 223.90625 156.226562 222.117188 160.730469 220.328125 165.734375 C 219.328125 168.382812 218.757812 173.886719 216.683594 175.746094 Z M 328.878906 282.9375 C 325.300781 280.289062 321.65625 277.503906 317.578125 275.714844 C 311.714844 273.140625 306.066406 273.570312 299.917969 274.5 C 294.984375 275.285156 286.6875 275.785156 285.757812 281.722656 C 285.1875 285.367188 284.972656 289.085938 284.542969 292.804688 C 291.40625 283.652344 304.851562 283.792969 314.289062 288.945312 C 318.007812 290.945312 322.585938 293.519531 324.800781 297.238281 C 327.304688 301.386719 326.875 307.390625 326.089844 311.96875 C 329.378906 306.460938 333.882812 300.242188 334.957031 293.734375 C 335.027344 293.164062 335.097656 292.589844 335.097656 292.449219 C 335.242188 287.726562 332.382812 285.582031 328.878906 282.9375 Z M 242.855469 235.8125 C 242.855469 232.59375 242.855469 229.304688 242.855469 226.089844 C 234.34375 226.230469 225.835938 226.375 217.398438 226.515625 C 216.539062 226.515625 213.964844 226.089844 213.25 226.589844 C 212.605469 227.019531 213.179688 226.589844 212.820312 227.519531 C 212.25 228.949219 212.820312 231.808594 212.820312 233.308594 C 212.820312 235.671875 212.820312 238.03125 212.820312 240.390625 C 212.820312 241.820312 212.535156 246.96875 213.035156 247.898438 C 213.679688 247.898438 216.183594 247.898438 216.753906 247.898438 C 218.757812 247.898438 220.757812 247.898438 222.761719 247.898438 C 227.550781 247.898438 232.269531 247.898438 237.0625 247.898438 C 238.421875 247.898438 241.925781 247.96875 242.855469 247.539062 C 242.78125 246.683594 242.855469 243.535156 242.855469 242.679688 C 242.855469 240.460938 242.855469 238.171875 242.855469 235.8125 Z M 325.730469 304.605469 C 325.589844 302.457031 325.300781 300.171875 324.300781 298.3125 C 322.15625 294.234375 317.148438 291.445312 313.21875 289.445312 C 303.277344 284.4375 290.835938 284.9375 284.257812 294.59375 C 300.5625 287.726562 323.226562 298.8125 319.152344 318.691406 C 321.796875 317.402344 323.085938 315.542969 325.015625 313.328125 C 324.371094 312.113281 325.875 306.390625 325.730469 304.605469 Z M 242.855469 222.226562 C 242.140625 221.582031 237.992188 222.226562 237.0625 222.226562 C 233.058594 222.226562 229.054688 222.226562 225.050781 222.226562 C 221.617188 222.226562 218.183594 222.226562 214.824219 222.226562 C 211.964844 222.226562 212.820312 222.941406 212.820312 225.875 C 218.757812 225.800781 224.691406 225.660156 230.554688 225.585938 C 233.988281 225.515625 237.417969 225.445312 240.78125 225.375 C 241.066406 225.375 242.496094 225.585938 242.78125 225.375 C 242.996094 225.160156 242.996094 222.371094 242.855469 222.226562 Z M 57.292969 319.476562 C 56.648438 318.761719 56.007812 316.546875 55.578125 315.113281 C 53.859375 309.324219 56.863281 303.246094 61.15625 299.527344 C 65.515625 295.738281 71.738281 293.734375 77.242188 292.234375 C 81.964844 290.945312 86.753906 291.589844 91.1875 293.449219 C 82.964844 282.363281 64.371094 282.4375 54.789062 291.804688 C 50.429688 296.09375 45.421875 305.675781 47.425781 311.898438 C 48.925781 316.6875 53.503906 322.480469 59.007812 321.050781 C 59.082031 321.050781 59.082031 321.050781 59.082031 321.050781 C 59.082031 320.40625 57.9375 320.191406 57.292969 319.476562 Z M 63.945312 285.367188 C 73.453125 282.222656 86.96875 284.511719 92.402344 293.589844 C 93.546875 290.945312 92.617188 287.726562 92.332031 284.867188 C 92.046875 281.648438 91.257812 279.433594 88.398438 277.503906 C 84.324219 274.785156 79.03125 274 74.242188 273.710938 C 71.882812 273.570312 69.449219 273.496094 67.089844 273.640625 C 64.230469 273.785156 61.726562 274.855469 59.007812 275.644531 C 55.792969 276.5 52.574219 277.144531 49.355469 278.003906 C 48.070312 278.359375 45.207031 279.789062 45.351562 279.71875 C 40.273438 282.9375 38.058594 289.371094 39.773438 295.023438 C 41.277344 300.097656 43.921875 304.675781 46.425781 309.394531 C 46.996094 298.738281 53.574219 288.800781 63.945312 285.367188 Z M 150.894531 151.292969 C 151.183594 158.011719 154.613281 165.449219 157.046875 171.597656 C 159.335938 168.882812 161.835938 166.378906 164.054688 163.589844 C 166.414062 160.585938 169.058594 155.582031 173.492188 158.15625 C 170.5625 154.078125 168.414062 149.433594 166.269531 144.855469 C 164.554688 141.28125 162.695312 137.632812 161.910156 133.699219 C 161.121094 129.980469 161.550781 125.976562 161.40625 122.1875 C 159.476562 124.761719 157.761719 127.480469 155.902344 130.125 C 154.542969 132.054688 149.609375 136.847656 149.609375 139.277344 C 149.539062 140.566406 150.96875 151.292969 150.894531 151.292969 Z M 208.03125 161.730469 C 211.390625 165.09375 213.464844 170.382812 216.46875 174.246094 C 218.613281 167.953125 221.761719 161.375 222.617188 154.722656 C 223.191406 150.148438 223.332031 144.785156 222.976562 140.207031 C 222.761719 137.0625 219.042969 133.699219 217.183594 131.054688 C 215.394531 128.550781 213.609375 126.050781 212.105469 123.402344 C 212.105469 124.546875 212.105469 125.761719 212.105469 126.90625 C 211.535156 138.632812 204.242188 147.789062 199.449219 158.15625 C 200.738281 157.441406 207.101562 160.800781 208.03125 161.730469 Z M 72.808594 272.496094 C 78.460938 272.78125 88.46875 273.570312 91.761719 279.21875 C 91.332031 274.714844 90.902344 270.28125 90.472656 265.773438 C 90.042969 260.914062 88.828125 255.476562 92.1875 251.257812 C 94.835938 247.898438 99.984375 247.96875 103.773438 247.898438 C 105.273438 247.898438 108.707031 247.898438 109.996094 247.898438 C 110.921875 245.894531 112.140625 241.890625 112.570312 240.03125 C 113.140625 237.53125 113.570312 235.242188 113.140625 232.667969 C 111.425781 222.15625 108.421875 211.785156 106.203125 201.417969 C 104.558594 193.550781 101.554688 186.117188 98.769531 178.535156 C 97.910156 176.246094 96.765625 173.816406 96.335938 171.457031 C 95.980469 169.738281 95.835938 168.953125 96.835938 170.882812 C 97.839844 172.816406 98.195312 175.246094 98.980469 177.25 C 100.484375 181.324219 102.128906 185.328125 103.558594 189.476562 C 106.0625 196.839844 107.207031 204.351562 109.136719 211.859375 C 108.421875 204.351562 108.777344 197.199219 109.566406 189.761719 C 109.707031 187.976562 110.136719 176.605469 111.425781 176.605469 C 111.496094 176.605469 110.566406 188.402344 110.351562 190.191406 C 109.636719 197.054688 109.207031 203.777344 109.707031 210.640625 C 110.566406 222.441406 114.929688 233.8125 115.929688 245.679688 C 116.144531 248.328125 115.5 247.96875 117.074219 247.96875 C 118.359375 247.96875 119.71875 247.96875 120.648438 247.96875 C 124.726562 247.96875 128.800781 247.96875 132.875 247.96875 C 149.539062 247.96875 166.34375 247.96875 182.71875 247.96875 C 182.71875 246.96875 182.71875 242.605469 182.71875 241.246094 C 182.71875 235.382812 182.71875 229.59375 182.71875 223.726562 C 182.71875 213.003906 182.71875 202.203125 182.71875 191.476562 C 182.71875 189.621094 182.289062 187.117188 182.71875 185.257812 C 183.074219 183.753906 185.363281 181.898438 185.433594 180.609375 C 185.503906 179.535156 183.789062 177.105469 183.359375 176.175781 C 181.144531 171.527344 179.140625 166.808594 176.28125 162.519531 C 174.566406 159.871094 171.492188 156.867188 168.199219 159.730469 C 165.699219 161.875 163.695312 165.308594 161.40625 167.738281 C 160.335938 168.882812 157.902344 172.886719 156.1875 172.027344 C 155.257812 171.597656 153.972656 166.59375 153.613281 165.664062 C 152.898438 163.589844 152.183594 161.515625 151.683594 159.371094 C 150.109375 153.078125 149.25 146.214844 148.679688 139.851562 C 141.3125 145.355469 131.230469 148 122.867188 151.792969 C 115.070312 155.367188 106.5625 158.871094 99.839844 164.304688 C 93.191406 169.597656 89.902344 176.460938 86.324219 183.828125 C 82.390625 191.90625 78.460938 200.058594 74.527344 208.140625 C 65.445312 226.804688 60.296875 247.398438 50.429688 265.632812 C 52.789062 261.269531 50 266.917969 50.285156 265.917969 C 48.710938 269.851562 47.78125 274.070312 46.710938 278.21875 C 51 276.285156 56.222656 275.644531 60.796875 274.285156 C 64.800781 272.925781 68.589844 272.28125 72.808594 272.496094 Z M 72.808594 272.496094 " fill-opacity="1" fill-rule="nonzero"/><path fill="#000000" d="M 97.335938 338.425781 C 97.265625 338.425781 97.195312 338.425781 97.121094 338.425781 C 95.335938 337.925781 93.546875 337.496094 91.617188 336.996094 C 84.824219 335.28125 77.816406 333.492188 72.167969 330.058594 C 68.019531 328.199219 64.371094 325.625 60.941406 322.121094 C 60.582031 321.765625 60.226562 321.480469 59.867188 321.121094 C 57.867188 319.191406 55.503906 316.972656 55.148438 313.257812 C 53.789062 300.527344 69.164062 293.304688 79.246094 291.730469 C 80.105469 291.589844 81.035156 291.519531 81.964844 291.519531 C 82.75 291.519531 83.535156 291.589844 84.324219 291.660156 C 85.109375 291.730469 92.1875 292.589844 93.90625 294.949219 C 94.40625 295.59375 94.40625 296.878906 94.40625 298.453125 C 94.40625 298.882812 94.40625 299.242188 94.40625 299.453125 L 98.050781 337.640625 C 98.050781 337.855469 97.980469 338.140625 97.765625 338.285156 C 97.695312 338.355469 97.550781 338.425781 97.335938 338.425781 Z M 279.609375 337.996094 C 279.464844 337.996094 279.324219 337.925781 279.179688 337.855469 C 278.964844 337.710938 278.824219 337.425781 278.894531 337.210938 L 282.828125 301.527344 C 282.898438 301.101562 282.898438 300.527344 282.898438 299.957031 C 282.898438 298.453125 282.96875 296.808594 283.542969 295.738281 C 284.257812 294.449219 286.832031 293.949219 289.335938 293.519531 L 289.835938 293.449219 C 291.191406 293.234375 292.550781 293.089844 293.910156 293.089844 C 295.414062 293.089844 296.984375 293.234375 298.773438 293.519531 C 303.636719 294.304688 309.214844 295.664062 313.789062 300.457031 C 318.652344 305.460938 320.511719 312.613281 318.796875 319.476562 C 318.722656 319.691406 318.582031 319.835938 318.4375 319.976562 C 309.714844 324.125 300.773438 328.273438 292.195312 332.277344 C 288.117188 334.207031 284.042969 336.066406 279.964844 337.996094 C 279.753906 337.925781 279.679688 337.996094 279.609375 337.996094 Z M 186.078125 180.609375 C 185.792969 180.609375 185.578125 180.394531 185.503906 180.179688 L 183.648438 176.175781 C 182.429688 173.53125 181.144531 170.957031 179.929688 168.308594 C 178.355469 165.019531 176.28125 161.945312 174.351562 158.941406 C 172.5625 156.296875 170.773438 153.507812 169.273438 150.574219 C 168.773438 149.648438 168.273438 148.71875 167.773438 147.714844 C 165.054688 142.566406 162.195312 137.277344 161.835938 131.625 C 161.621094 128.835938 161.621094 126.050781 161.550781 123.261719 C 161.550781 121.902344 161.480469 120.472656 161.480469 119.113281 C 161.480469 118.753906 161.695312 118.46875 161.980469 118.398438 C 162.050781 118.398438 162.121094 118.398438 162.195312 118.398438 C 162.410156 118.398438 162.695312 118.539062 162.765625 118.753906 C 166.699219 124.976562 171.417969 127.835938 177.355469 131.484375 L 178.640625 132.269531 C 180.285156 133.058594 182.503906 133.484375 185.078125 133.484375 C 188.722656 133.484375 192.941406 132.554688 196.015625 131.125 C 201.667969 128.480469 204.957031 124.046875 208.460938 119.398438 C 209.246094 118.328125 210.03125 117.253906 210.890625 116.179688 C 211.035156 116.039062 211.25 115.894531 211.460938 115.894531 C 211.535156 115.894531 211.605469 115.894531 211.675781 115.964844 C 211.964844 116.039062 212.179688 116.324219 212.179688 116.679688 C 212.179688 118.039062 212.179688 119.46875 212.179688 120.828125 C 212.179688 122.6875 212.25 124.546875 212.179688 126.40625 C 211.964844 132.339844 210.53125 137.347656 207.101562 143.710938 C 205.171875 147.285156 203.3125 151.003906 201.523438 154.582031 C 197.234375 163.234375 192.726562 172.242188 186.792969 180.324219 C 186.578125 180.464844 186.363281 180.609375 186.078125 180.609375 Z M 181.859375 114.609375 C 179.070312 114.609375 177.570312 113.964844 177.496094 112.675781 C 177.496094 112.105469 177.640625 111.53125 178.070312 111.105469 C 179.785156 109.316406 184.933594 109.171875 186.507812 109.171875 C 186.863281 109.171875 187.222656 109.171875 187.578125 109.171875 C 188.722656 109.246094 193.65625 110.175781 194.800781 111.960938 C 195.085938 112.460938 195.160156 112.964844 194.945312 113.464844 C 194.515625 114.535156 192.871094 114.535156 192.300781 114.535156 C 191.582031 114.535156 190.726562 114.464844 189.726562 114.320312 C 189.222656 114.25 188.582031 114.179688 187.792969 114.179688 C 186.578125 114.179688 185.21875 114.25 184.003906 114.464844 C 183.433594 114.535156 182.574219 114.609375 181.859375 114.609375 Z M 204.097656 113.894531 C 203.597656 113.894531 203.097656 113.820312 202.597656 113.679688 C 200.164062 113.035156 198.378906 111.605469 196.589844 110.175781 C 194.800781 108.746094 193.15625 107.386719 190.867188 106.8125 L 190.511719 106.742188 C 188.4375 106.242188 186.648438 105.8125 184.71875 105.8125 C 183.71875 105.8125 182.789062 105.957031 181.859375 106.167969 C 178.925781 106.957031 176.925781 108.457031 174.636719 110.246094 C 174.066406 110.675781 173.492188 111.175781 172.847656 111.605469 C 171.277344 112.75 169.703125 113.820312 167.914062 113.820312 C 167.199219 113.820312 166.484375 113.679688 165.839844 113.320312 C 162.410156 111.746094 161.050781 107.027344 160.191406 103.953125 C 159.546875 101.949219 159.546875 99.589844 159.476562 97.304688 C 159.476562 96.300781 159.476562 95.371094 159.40625 94.515625 C 159.335938 93.15625 159.191406 91.867188 159.046875 90.507812 C 158.832031 87.863281 158.546875 85.148438 158.476562 82.429688 C 158.332031 78.210938 160.265625 75.492188 162.480469 72.417969 L 162.625 72.203125 C 162.910156 71.773438 163.265625 71.34375 163.554688 70.917969 C 165.339844 68.484375 167.058594 66.269531 167.628906 63.265625 C 168.34375 59.691406 167.988281 55.972656 167.414062 52.46875 C 167.34375 52.179688 167.484375 51.894531 167.699219 51.753906 C 167.84375 51.679688 167.988281 51.609375 168.128906 51.609375 C 168.273438 51.609375 168.414062 51.609375 168.488281 51.679688 C 175.136719 55.613281 182.074219 56.042969 189.867188 56.1875 C 190.082031 56.1875 190.367188 56.1875 190.582031 56.1875 C 191.15625 56.1875 191.65625 56.1875 192.226562 56.1875 C 192.800781 56.1875 193.371094 56.1875 193.945312 56.1875 C 197.019531 56.1875 200.523438 56.402344 203.238281 58.6875 C 203.882812 59.261719 204.667969 59.832031 205.457031 60.40625 C 207.746094 62.121094 210.320312 64.050781 211.605469 66.410156 C 212.390625 67.914062 212.679688 69.628906 212.894531 71.273438 C 213.035156 72.203125 213.179688 73.0625 213.394531 73.921875 C 214.324219 77.28125 214.753906 79.710938 214.464844 83.144531 C 214.324219 84.71875 214.179688 86.289062 214.109375 87.863281 C 213.964844 90.4375 213.75 93.082031 213.394531 95.660156 C 213.109375 98.019531 212.320312 100.304688 211.605469 102.59375 C 211.390625 103.308594 211.105469 104.023438 210.890625 104.738281 L 210.675781 105.453125 C 209.890625 108.886719 208.316406 113.894531 204.097656 113.894531 Z M 154.398438 98.589844 C 149.964844 98.589844 148.535156 93.441406 147.464844 89.652344 C 147.390625 89.292969 147.105469 88.363281 147.105469 88.363281 C 146.105469 84.859375 144.460938 79.070312 147.820312 76.066406 C 148.535156 75.421875 149.324219 75.0625 150.179688 75.0625 C 153.398438 75.0625 155.257812 80.355469 155.757812 81.929688 C 155.832031 82.070312 159.761719 96.730469 156.6875 98.160156 C 156.6875 98.160156 156.617188 98.160156 156.546875 98.234375 L 156.472656 98.234375 C 155.757812 98.445312 155.042969 98.589844 154.398438 98.589844 Z M 217.398438 96.945312 C 216.039062 96.945312 215.179688 96.085938 214.964844 94.65625 C 214.964844 94.585938 214.964844 94.585938 214.964844 94.515625 C 214.964844 93.871094 214.964844 93.226562 214.964844 92.582031 C 214.964844 91.367188 214.964844 90.082031 214.964844 88.792969 C 215.039062 86.289062 217.328125 78.640625 218.328125 77.636719 C 218.757812 77.210938 220.257812 75.777344 221.402344 75.566406 C 221.832031 75.492188 222.1875 75.421875 222.546875 75.421875 C 223.546875 75.421875 224.40625 75.777344 225.050781 76.496094 C 226.121094 77.78125 226.480469 80.140625 225.980469 83.503906 C 225.476562 87.21875 224.335938 92.15625 221.902344 94.730469 C 220.902344 95.800781 218.972656 96.945312 217.398438 96.945312 Z M 217.398438 96.945312 " fill-opacity="1" fill-rule="nonzero"/><path fill="#ffa658" d="M 155.042969 82.144531 C 155.757812 84.359375 158.40625 96.585938 156.402344 97.515625 C 156.402344 97.515625 156.332031 97.515625 156.257812 97.589844 C 150.46875 99.449219 149.035156 92.65625 147.894531 88.507812 C 146.890625 85.074219 145.175781 79.355469 148.320312 76.636719 C 151.683594 73.5625 154.257812 79.496094 155.042969 82.144531 Z M 215.683594 94.585938 C 215.96875 97.660156 219.902344 95.800781 221.332031 94.300781 C 223.691406 91.796875 224.761719 86.792969 225.191406 83.503906 C 225.621094 80.714844 225.90625 75.351562 221.472656 76.351562 C 220.6875 76.566406 219.328125 77.636719 218.757812 78.210938 C 217.96875 78.996094 215.683594 86.433594 215.609375 88.863281 C 215.609375 90.796875 215.683594 92.65625 215.683594 94.585938 C 215.683594 94.515625 215.683594 94.585938 215.683594 94.585938 Z M 298.703125 294.164062 C 295.699219 293.734375 292.980469 293.589844 289.976562 294.09375 C 288.617188 294.304688 284.828125 294.808594 284.183594 296.023438 C 283.46875 297.308594 283.757812 300.097656 283.542969 301.527344 C 282.253906 313.398438 280.894531 325.339844 279.609375 337.210938 C 292.410156 331.203125 305.28125 325.199219 318.078125 319.191406 C 319.722656 312.613281 317.9375 305.746094 313.289062 300.886719 C 309.214844 296.667969 304.351562 295.023438 298.703125 294.164062 Z M 93.761719 299.527344 C 93.691406 298.667969 93.90625 296.164062 93.40625 295.378906 C 92.117188 293.519531 86.46875 292.589844 84.324219 292.375 C 82.75 292.234375 81.035156 292.160156 79.460938 292.445312 C 69.519531 293.949219 54.648438 300.957031 56.007812 313.183594 C 56.433594 317.261719 59.296875 319.335938 61.582031 321.621094 C 64.875 324.910156 68.449219 327.484375 72.667969 329.417969 C 79.816406 333.777344 89.542969 335.496094 97.480469 337.710938 C 96.980469 332.207031 96.40625 326.769531 95.90625 321.265625 C 95.121094 314.042969 94.40625 306.75 93.761719 299.527344 Z M 162.050781 119.113281 C 162.195312 123.261719 162.195312 127.40625 162.410156 131.554688 C 162.839844 138.132812 166.84375 144.496094 169.773438 150.21875 C 172.921875 156.367188 177.496094 161.730469 180.5 168.023438 C 182.359375 171.957031 184.21875 175.960938 186.078125 179.894531 C 194.445312 168.597656 199.734375 155.726562 206.3125 143.355469 C 209.316406 137.703125 211.105469 132.769531 211.320312 126.335938 C 211.460938 123.117188 211.25 119.828125 211.320312 116.609375 C 206.671875 122.546875 203.3125 128.480469 196.230469 131.769531 C 191.371094 134.058594 183.074219 135.34375 178.140625 132.84375 C 171.5625 128.765625 166.34375 125.90625 162.050781 119.113281 Z M 166.199219 112.675781 C 168.558594 113.75 170.488281 112.535156 172.492188 111.03125 C 175.566406 108.746094 177.855469 106.382812 181.714844 105.453125 C 185.003906 104.597656 187.792969 105.3125 191.011719 106.097656 C 195.730469 107.242188 198.164062 111.820312 202.738281 112.964844 C 207.816406 114.25 209.316406 108.171875 210.390625 104.597656 C 211.320312 101.664062 212.464844 98.734375 212.894531 95.660156 C 213.394531 91.511719 213.535156 87.292969 213.964844 83.144531 C 214.25 79.785156 213.824219 77.421875 212.964844 74.207031 C 212.320312 71.847656 212.390625 69.058594 211.175781 66.914062 C 209.53125 63.835938 205.527344 61.550781 202.953125 59.332031 C 199.449219 56.402344 194.371094 57.117188 190.011719 57.042969 C 182.359375 56.902344 175.066406 56.472656 168.273438 52.394531 C 168.84375 56.042969 169.203125 59.832031 168.488281 63.480469 C 167.699219 67.125 165.484375 69.699219 163.339844 72.703125 C 161.050781 75.851562 159.121094 78.425781 159.261719 82.5 C 159.40625 86.503906 159.90625 90.507812 160.191406 94.515625 C 160.40625 97.375 160.050781 101.09375 160.980469 103.808594 C 161.835938 106.8125 163.125 111.246094 166.199219 112.675781 Z M 183.933594 113.75 C 185.792969 113.464844 188.367188 113.390625 189.796875 113.605469 C 190.796875 113.75 193.800781 114.25 194.230469 113.175781 C 194.945312 111.320312 189.007812 109.960938 187.507812 109.886719 C 184.433594 109.746094 177.996094 110.175781 178.140625 112.605469 C 178.285156 114.105469 182.359375 113.964844 183.933594 113.75 Z M 183.933594 113.75 " fill-opacity="1" fill-rule="nonzero"/><path fill="#000000" d="M 50.355469 265.558594 C 50.285156 265.632812 50.285156 265.773438 50.214844 265.847656 C 49.929688 266.777344 52.789062 261.125 50.355469 265.558594 Z M 50.355469 265.558594 " fill-opacity="1" fill-rule="nonzero"/><path fill="#000000" d="M 156.402344 97.515625 C 156.402344 97.515625 156.332031 97.515625 156.257812 97.589844 C 156.332031 97.515625 156.332031 97.515625 156.402344 97.515625 Z M 156.402344 97.515625 " fill-opacity="1" fill-rule="nonzero"/><path fill="#000000" d="M 282.398438 174.460938 C 282.398438 174.460938 282.328125 174.386719 282.328125 174.386719 C 282.328125 174.460938 282.398438 174.460938 282.46875 174.53125 C 282.46875 174.53125 282.46875 174.460938 282.398438 174.460938 Z M 282.398438 174.460938 " fill-opacity="1" fill-rule="nonzero"/><g clip-path="url(#7469b36a15)"><path fill="#000000" d="M 334.957031 287.011719 C 334.957031 286.941406 335.8125 288.800781 334.957031 287.011719 Z M 215.683594 94.585938 C 215.683594 94.585938 215.683594 94.515625 215.683594 94.585938 Z M 59.082031 321.121094 C 59.007812 321.121094 59.082031 321.121094 59.082031 321.121094 Z M 156.402344 97.515625 C 156.402344 97.515625 156.332031 97.515625 156.257812 97.589844 C 156.332031 97.515625 156.332031 97.515625 156.402344 97.515625 Z M 365.132812 350.441406 C 364.773438 352.226562 364.703125 360.953125 362.914062 361.308594 C 361.269531 361.667969 16.964844 361.953125 16.035156 361.523438 C 14.03125 360.664062 12.816406 355.230469 11.886719 353.15625 C 11.386719 352.085938 8.667969 347.722656 9.027344 346.433594 C 9.382812 345.21875 11.527344 345.792969 12.746094 345.792969 C 17.820312 345.792969 92.976562 345.792969 98.125 345.792969 C 97.980469 344.363281 97.839844 343.003906 97.695312 341.574219 C 97.480469 339.070312 97.910156 339.5 95.980469 338.425781 C 93.117188 336.851562 88.898438 336.425781 85.753906 335.421875 C 83.464844 334.707031 81.25 333.992188 78.960938 333.277344 C 75.671875 332.132812 72.453125 330.847656 69.449219 329.128906 C 67.734375 328.199219 66.089844 327.058594 64.585938 325.839844 C 62.941406 324.554688 59.582031 321.550781 59.511719 321.695312 C 58.4375 323.980469 52.859375 320.765625 51.859375 319.90625 C 49.5 317.761719 47.710938 314.613281 46.425781 311.753906 C 45.136719 308.824219 43.636719 305.890625 42.132812 303.03125 C 39.773438 298.453125 37.128906 293.164062 38.414062 287.871094 C 39.417969 284.007812 42.0625 281.9375 44.566406 279.148438 C 46.710938 276.785156 46.996094 271.851562 48.070312 268.636719 C 49.929688 262.773438 53.074219 257.121094 55.503906 251.472656 C 60.511719 239.675781 65.300781 227.734375 70.023438 215.863281 C 74.882812 203.777344 81.175781 192.335938 86.753906 180.539062 C 90.6875 172.171875 95.335938 165.378906 103.414062 160.660156 C 116.359375 153.152344 130.375 148.289062 143.675781 141.496094 C 145.390625 140.566406 147.820312 139.707031 149.179688 138.207031 C 150.179688 137.0625 150.96875 135.417969 151.898438 134.128906 C 153.683594 131.699219 155.542969 129.265625 157.1875 126.691406 C 159.546875 123.1875 162.695312 120.398438 160.550781 116.109375 C 159.335938 113.679688 157.976562 111.746094 157.546875 109.03125 C 156.972656 105.382812 156.972656 101.738281 156.902344 98.019531 C 150.824219 101.664062 148.25 92.15625 147.25 88.4375 C 146.035156 84.074219 144.101562 77.351562 149.25 74.777344 C 142.457031 63.980469 136.453125 47.605469 146.820312 36.949219 C 148.464844 35.234375 150.609375 33.945312 152.898438 33.445312 C 153.542969 33.304688 156.617188 33.589844 157.117188 33.230469 C 157.546875 32.945312 158.40625 29.371094 158.691406 28.726562 C 159.261719 27.367188 159.835938 26.082031 160.691406 24.792969 C 164.484375 19.074219 173.347656 16.429688 178.210938 15.355469 C 180.5 14.855469 185.148438 14.210938 187.4375 14.425781 C 190.152344 14.710938 195.230469 16.785156 197.660156 18 C 200.808594 19.574219 206.816406 23.148438 209.53125 25.4375 C 210.746094 26.4375 212.75 28.796875 214.324219 29.585938 C 215.179688 30.015625 218.183594 30.371094 219.398438 30.871094 C 221.1875 31.515625 223.546875 33.304688 225.050781 36.019531 C 228.265625 41.671875 229.984375 48.964844 229.125 55.113281 C 228.125 62.480469 223.546875 68.414062 222.117188 75.277344 C 228.980469 74.421875 226.265625 84.933594 225.121094 88.4375 C 224.335938 90.796875 219.398438 101.738281 215.683594 96.445312 C 215.683594 100.664062 215.96875 104.667969 215.039062 108.957031 C 214.394531 112.035156 212.390625 114.320312 212.179688 117.324219 C 212.035156 120.113281 212.320312 121.902344 213.75 124.261719 C 216.183594 128.265625 218.898438 131.984375 221.6875 135.703125 C 226.335938 141.921875 235.203125 144.855469 242.28125 147.714844 C 249.789062 150.789062 257.726562 152.9375 264.808594 156.867188 C 280.609375 165.519531 289.191406 181.039062 296.269531 196.984375 C 304.136719 214.503906 310.070312 232.882812 317.078125 250.757812 C 319.652344 257.410156 322.371094 263.988281 325.515625 270.351562 C 326.660156 272.78125 327.949219 275.070312 329.304688 277.359375 C 330.808594 279.863281 334.597656 283.652344 334.957031 286.65625 C 337.816406 292.875 334.027344 299.453125 331.023438 304.890625 C 328.664062 309.109375 326.304688 313.398438 322.871094 316.902344 C 320.726562 319.046875 318.007812 319.90625 315.363281 321.191406 C 310.070312 323.695312 304.78125 326.128906 299.488281 328.628906 C 293.765625 331.347656 288.046875 333.992188 282.328125 336.710938 C 281.609375 337.066406 280.394531 337.640625 279.464844 338.140625 C 279.035156 340.070312 278.824219 344.003906 278.609375 345.933594 C 280.324219 345.933594 282.039062 345.933594 283.828125 345.933594 C 287.117188 345.933594 356.335938 345.933594 359.625 345.933594 C 360.625 345.933594 364.632812 345.292969 365.488281 345.933594 C 366.417969 346.9375 365.417969 349.296875 365.132812 350.441406 Z M 215.683594 94.585938 C 216.039062 97.660156 219.902344 95.871094 221.402344 94.300781 C 223.761719 91.796875 224.835938 86.792969 225.261719 83.503906 C 225.691406 80.714844 225.980469 75.351562 221.546875 76.351562 C 220.757812 76.566406 219.398438 77.636719 218.828125 78.210938 C 218.042969 78.996094 215.753906 86.433594 215.683594 88.863281 C 215.609375 90.796875 215.683594 92.65625 215.683594 94.585938 Z M 155.042969 82.144531 C 154.257812 79.570312 151.613281 73.5625 148.25 76.566406 C 145.105469 79.355469 146.890625 85.074219 147.820312 88.4375 C 149.035156 92.582031 150.394531 99.375 156.1875 97.515625 C 156.042969 97.589844 155.972656 97.589844 156.332031 97.445312 C 158.476562 96.585938 155.757812 84.359375 155.042969 82.144531 Z M 313.289062 300.886719 C 309.214844 296.667969 304.351562 295.023438 298.703125 294.164062 C 295.699219 293.734375 292.980469 293.589844 289.976562 294.09375 C 288.617188 294.304688 284.828125 294.808594 284.183594 296.023438 C 283.46875 297.308594 283.757812 300.097656 283.542969 301.527344 C 282.253906 313.398438 280.894531 325.339844 279.609375 337.210938 C 292.410156 331.203125 305.28125 325.199219 318.078125 319.191406 C 319.722656 312.683594 317.9375 305.746094 313.289062 300.886719 Z M 325.730469 304.605469 C 325.589844 302.457031 325.300781 300.171875 324.300781 298.3125 C 322.15625 294.234375 317.148438 291.445312 313.21875 289.445312 C 303.277344 284.4375 290.835938 284.9375 284.257812 294.59375 C 300.5625 287.726562 323.226562 298.8125 319.152344 318.691406 C 321.796875 317.402344 323.085938 315.542969 325.015625 313.328125 C 324.371094 312.113281 325.875 306.390625 325.730469 304.605469 Z M 328.878906 282.9375 C 325.300781 280.289062 321.65625 277.503906 317.578125 275.714844 C 311.714844 273.140625 306.066406 273.570312 299.917969 274.5 C 294.984375 275.285156 286.6875 275.785156 285.757812 281.722656 C 285.1875 285.367188 284.972656 289.085938 284.542969 292.804688 C 291.40625 283.652344 304.851562 283.792969 314.289062 288.945312 C 318.007812 290.945312 322.585938 293.519531 324.800781 297.238281 C 327.304688 301.386719 326.875 307.390625 326.089844 311.96875 C 329.378906 306.460938 333.882812 300.242188 334.957031 293.734375 C 334.882812 294.734375 334.8125 295.449219 335.097656 292.804688 C 335.097656 292.449219 335.097656 292.375 335.097656 292.449219 C 335.242188 287.726562 332.382812 285.582031 328.878906 282.9375 Z M 269.667969 193.195312 C 267.523438 201.488281 266.164062 208.066406 264.59375 215.503906 C 263.734375 219.582031 262.375 223.800781 262.160156 228.019531 C 262.089844 230.808594 263.664062 233.238281 264.519531 235.882812 C 265.234375 238.03125 265.878906 239.960938 266.808594 241.960938 C 267.308594 243.105469 268.882812 247.46875 269.453125 247.898438 C 270.671875 248.039062 272.671875 247.828125 273.53125 247.828125 C 278.035156 247.828125 283.972656 248.613281 286.6875 252.832031 C 289.335938 256.980469 287.761719 263.34375 287.261719 267.992188 C 286.832031 271.566406 286.472656 275.070312 286.117188 278.644531 C 291.191406 273.855469 300.417969 273.28125 307.140625 272.925781 C 317.007812 272.355469 325.300781 279.003906 332.667969 284.796875 C 328.449219 277.789062 324.371094 271.066406 321.15625 263.558594 C 316.863281 253.691406 313.359375 243.609375 309.425781 233.597656 C 301.5625 213.644531 295.339844 192.050781 282.613281 174.460938 C 283.972656 176.320312 291.480469 186.617188 282.539062 174.386719 C 282.398438 174.171875 282.328125 174.171875 282.46875 174.316406 C 281.039062 172.3125 279.394531 170.382812 277.75 168.597656 C 273.675781 176.03125 271.742188 185.1875 269.667969 193.195312 Z M 261.660156 231.238281 C 261.445312 234.527344 261.445312 237.742188 261.445312 240.960938 C 261.445312 243.320312 260.589844 245.679688 260.730469 247.96875 C 261.089844 247.96875 267.382812 247.96875 267.882812 247.96875 C 267.308594 245.179688 265.738281 241.820312 264.519531 239.246094 C 263.878906 236.457031 263.019531 233.667969 261.660156 231.238281 Z M 261.945312 227.230469 C 261.945312 227.445312 261.945312 227.734375 261.945312 228.019531 C 261.945312 227.734375 261.945312 227.445312 261.945312 227.230469 Z M 223.90625 150.71875 C 223.90625 156.152344 222.117188 160.660156 220.328125 165.664062 C 219.328125 168.382812 218.757812 173.886719 216.683594 175.746094 C 214.035156 172.386719 211.675781 169.023438 209.460938 165.378906 C 208.246094 163.375 207.242188 162.089844 205.171875 161.160156 C 204.027344 160.660156 201.023438 159.230469 199.808594 159.441406 C 199.304688 159.515625 199.164062 159.371094 199.164062 159.230469 C 199.09375 159.371094 198.878906 159.730469 198.519531 160.300781 C 198.019531 161.085938 197.519531 162.660156 197.089844 163.449219 C 195.515625 166.523438 193.730469 169.527344 191.941406 172.386719 C 190.152344 175.316406 187.867188 179.035156 186.007812 181.46875 C 185.792969 182.753906 184.433594 184.398438 184.21875 185.902344 C 184.003906 187.117188 184.21875 188.617188 184.21875 189.832031 C 184.21875 201.5625 184.21875 213.359375 184.21875 225.085938 C 184.21875 230.59375 184.21875 236.171875 184.21875 241.675781 C 184.21875 242.75 184.148438 246.46875 184.148438 247.96875 C 188.222656 247.96875 192.65625 247.96875 196.945312 247.96875 C 200.164062 247.96875 203.382812 247.96875 206.671875 247.96875 C 207.457031 247.96875 211.320312 248.039062 212.105469 247.96875 C 212.105469 247.46875 212.105469 244.679688 212.105469 244.25 C 212.105469 241.320312 212.105469 238.316406 212.105469 235.382812 C 212.105469 232.667969 212.105469 229.878906 212.105469 227.160156 C 212.105469 225.800781 211.675781 223.941406 212.105469 222.796875 C 212.679688 221.082031 212.820312 221.582031 215.039062 221.582031 C 217.398438 221.582031 219.757812 221.582031 222.046875 221.582031 C 228.050781 221.582031 234.058594 221.582031 239.992188 221.582031 C 243.496094 221.582031 243.496094 221.441406 243.496094 225.085938 C 243.496094 230.878906 243.496094 236.601562 243.496094 242.390625 C 243.496094 243.320312 243.640625 246.824219 243.496094 247.898438 C 244.570312 248.039062 246.214844 248.039062 246.859375 248.039062 C 251.222656 248.039062 256.082031 248.039062 260.230469 248.039062 C 259.945312 247.46875 260.660156 243.320312 260.660156 242.105469 C 260.660156 239.03125 260.589844 235.882812 260.730469 232.808594 C 261.375 221.511719 260.445312 210.070312 261.375 198.84375 C 261.730469 194.625 262.089844 190.621094 262.089844 186.328125 C 262.089844 184.257812 261.875 182.183594 261.875 180.109375 C 261.875 178.964844 261.945312 177.605469 262.089844 176.390625 C 262.089844 176.105469 262.660156 174.960938 262.734375 175.390625 C 262.949219 179.394531 262.804688 182.753906 262.804688 186.902344 C 262.804688 191.121094 262.519531 194.910156 262.089844 198.988281 C 261.160156 208.210938 262.875 213.574219 261.875 222.796875 C 262.519531 216.71875 264.019531 213.933594 265.378906 207.996094 C 268.097656 196.339844 270.8125 184.257812 274.746094 172.886719 C 275.175781 171.671875 276.675781 169.167969 276.460938 168.167969 C 276.105469 166.234375 272.03125 163.589844 270.527344 162.445312 C 266.09375 159.085938 261.160156 156.582031 256.011719 154.582031 C 244.929688 150.363281 234.058594 146.5 223.617188 140.707031 C 223.546875 143.996094 223.90625 147.359375 223.90625 150.71875 Z M 242.855469 242.75 C 242.855469 240.460938 242.855469 238.101562 242.855469 235.8125 C 242.855469 232.59375 242.855469 229.304688 242.855469 226.089844 C 234.34375 226.230469 225.835938 226.375 217.398438 226.515625 C 216.539062 226.515625 213.964844 226.089844 213.25 226.589844 C 212.605469 227.019531 213.179688 226.589844 212.820312 227.519531 C 212.25 228.949219 212.820312 231.808594 212.820312 233.308594 C 212.820312 235.671875 212.820312 238.03125 212.820312 240.390625 C 212.820312 241.820312 212.535156 246.96875 213.035156 247.898438 C 213.679688 247.898438 216.183594 247.898438 216.753906 247.898438 C 218.757812 247.898438 220.757812 247.898438 222.761719 247.898438 C 227.550781 247.898438 232.269531 247.898438 237.0625 247.898438 C 238.421875 247.898438 241.925781 247.96875 242.855469 247.539062 C 242.78125 246.753906 242.855469 243.609375 242.855469 242.75 Z M 242.855469 222.226562 C 242.140625 221.582031 237.992188 222.226562 237.0625 222.226562 C 233.058594 222.226562 229.054688 222.226562 225.050781 222.226562 C 221.617188 222.226562 218.183594 222.226562 214.824219 222.226562 C 211.964844 222.226562 212.820312 222.941406 212.820312 225.875 C 218.757812 225.800781 224.691406 225.660156 230.554688 225.585938 C 233.988281 225.515625 237.417969 225.445312 240.78125 225.375 C 241.066406 225.375 242.496094 225.585938 242.78125 225.375 C 242.996094 225.160156 242.996094 222.371094 242.855469 222.226562 Z M 178.210938 132.84375 C 171.5625 128.765625 166.414062 125.90625 162.050781 119.113281 C 162.195312 123.261719 162.195312 127.40625 162.410156 131.554688 C 162.839844 138.132812 166.84375 144.496094 169.773438 150.21875 C 172.921875 156.367188 177.496094 161.730469 180.5 168.023438 C 182.359375 171.957031 184.21875 175.960938 186.078125 179.894531 C 194.445312 168.597656 199.734375 155.726562 206.3125 143.355469 C 209.316406 137.703125 211.105469 132.769531 211.320312 126.335938 C 211.460938 123.117188 211.25 119.828125 211.320312 116.609375 C 206.671875 122.546875 203.3125 128.480469 196.230469 131.769531 C 191.371094 134.058594 183.144531 135.273438 178.210938 132.84375 Z M 183.933594 113.75 C 185.792969 113.464844 188.367188 113.390625 189.796875 113.605469 C 190.796875 113.75 193.800781 114.25 194.230469 113.175781 C 194.945312 111.320312 189.007812 109.960938 187.507812 109.886719 C 184.433594 109.746094 177.996094 110.175781 178.140625 112.605469 C 178.285156 114.105469 182.359375 113.964844 183.933594 113.75 Z M 199.449219 158.226562 C 200.738281 157.441406 207.101562 160.800781 208.03125 161.730469 C 211.390625 165.09375 213.464844 170.382812 216.46875 174.246094 C 218.613281 167.953125 221.761719 161.375 222.617188 154.722656 C 223.191406 150.148438 223.332031 144.785156 222.976562 140.207031 C 222.761719 137.0625 219.042969 133.699219 217.183594 131.054688 C 215.394531 128.550781 213.609375 126.050781 212.105469 123.402344 C 212.105469 124.546875 212.105469 125.761719 212.105469 126.90625 C 211.535156 138.632812 204.242188 147.859375 199.449219 158.226562 Z M 166.199219 112.675781 C 168.558594 113.75 170.488281 112.535156 172.492188 111.03125 C 175.566406 108.746094 177.855469 106.382812 181.714844 105.453125 C 185.003906 104.597656 187.792969 105.3125 191.011719 106.097656 C 195.730469 107.242188 198.164062 111.820312 202.738281 112.964844 C 207.816406 114.25 209.316406 108.171875 210.390625 104.597656 C 211.320312 101.664062 212.464844 98.734375 212.894531 95.660156 C 213.394531 91.511719 213.535156 87.292969 213.964844 83.144531 C 214.25 79.785156 213.824219 77.421875 212.964844 74.207031 C 212.320312 71.847656 212.390625 69.058594 211.175781 66.914062 C 209.53125 63.835938 205.527344 61.550781 202.953125 59.332031 C 199.449219 56.402344 194.371094 57.117188 190.011719 57.042969 C 182.359375 56.902344 175.066406 56.472656 168.273438 52.394531 C 168.84375 56.042969 169.203125 59.832031 168.488281 63.480469 C 167.699219 67.125 165.484375 69.699219 163.339844 72.703125 C 161.050781 75.851562 159.121094 78.425781 159.261719 82.5 C 159.40625 86.503906 159.90625 90.507812 160.191406 94.515625 C 160.40625 97.375 160.050781 101.09375 160.980469 103.808594 C 161.835938 106.8125 163.125 111.246094 166.199219 112.675781 Z M 149.539062 139.277344 C 149.539062 140.492188 151.039062 151.292969 150.894531 151.292969 C 151.183594 158.011719 154.613281 165.449219 157.046875 171.597656 C 159.335938 168.882812 161.835938 166.378906 164.054688 163.589844 C 166.414062 160.585938 169.058594 155.582031 173.492188 158.15625 C 170.5625 154.078125 168.414062 149.433594 166.269531 144.855469 C 164.554688 141.28125 162.695312 137.632812 161.910156 133.699219 C 161.121094 129.980469 161.550781 125.976562 161.40625 122.1875 C 159.476562 124.761719 157.761719 127.480469 155.902344 130.125 C 154.398438 132.054688 149.539062 136.847656 149.539062 139.277344 Z M 46.710938 278.144531 C 51 276.214844 56.222656 275.570312 60.796875 274.210938 C 64.800781 272.996094 68.664062 272.355469 72.882812 272.566406 C 78.53125 272.855469 88.542969 273.640625 91.832031 279.289062 C 91.402344 274.785156 90.972656 270.351562 90.542969 265.847656 C 90.117188 260.984375 88.898438 255.550781 92.261719 251.332031 C 94.90625 247.96875 100.054688 248.042969 103.84375 247.96875 C 105.347656 247.96875 108.777344 247.96875 110.066406 247.96875 C 110.996094 245.96875 112.210938 241.960938 112.640625 240.105469 C 113.210938 237.601562 113.640625 235.3125 113.210938 232.738281 C 111.496094 222.226562 108.492188 211.859375 106.277344 201.488281 C 104.632812 193.625 101.628906 186.1875 98.839844 178.605469 C 97.980469 176.320312 96.835938 173.886719 96.40625 171.527344 C 96.050781 169.8125 95.90625 169.023438 96.910156 170.957031 C 97.910156 172.886719 98.265625 175.316406 99.054688 177.320312 C 100.554688 181.394531 102.199219 185.398438 103.628906 189.546875 C 106.132812 196.914062 107.277344 204.421875 109.207031 211.929688 C 108.492188 204.421875 108.851562 197.269531 109.636719 189.832031 C 109.78125 188.046875 110.207031 176.675781 111.496094 176.675781 C 111.566406 176.675781 110.636719 188.476562 110.421875 190.261719 C 109.707031 197.128906 109.277344 203.847656 109.78125 210.714844 C 110.636719 222.511719 115 233.882812 116 245.753906 C 116.214844 248.398438 115.570312 248.042969 117.144531 248.042969 C 118.433594 248.042969 119.789062 248.042969 120.71875 248.042969 C 124.796875 248.042969 128.871094 248.042969 132.949219 248.042969 C 149.609375 248.042969 166.414062 248.042969 182.789062 248.042969 C 182.789062 247.039062 182.789062 242.679688 182.789062 241.320312 C 182.789062 235.457031 182.789062 229.664062 182.789062 223.800781 C 182.789062 213.074219 182.789062 202.277344 182.789062 191.550781 C 182.789062 189.691406 182.359375 187.1875 182.789062 185.328125 C 183.144531 183.828125 185.433594 181.96875 185.503906 180.679688 C 185.578125 179.609375 183.859375 177.175781 183.433594 176.246094 C 181.214844 171.597656 179.214844 166.878906 176.351562 162.589844 C 174.636719 159.945312 171.5625 156.941406 168.273438 159.800781 C 165.769531 161.945312 163.769531 165.378906 161.480469 167.808594 C 160.40625 168.953125 157.976562 172.957031 156.257812 172.101562 C 155.328125 171.671875 154.042969 166.664062 153.683594 165.734375 C 152.96875 163.660156 152.253906 161.589844 151.753906 159.441406 C 150.179688 153.152344 149.324219 146.285156 148.75 139.921875 C 141.386719 145.425781 131.304688 148.074219 122.9375 151.863281 C 115.144531 155.4375 106.632812 158.941406 99.910156 164.378906 C 93.261719 169.667969 89.972656 176.535156 86.398438 183.898438 C 82.464844 191.980469 78.53125 200.132812 74.597656 208.210938 C 65.515625 226.875 60.367188 247.46875 50.5 265.703125 C 50.429688 265.847656 50.429688 265.917969 50.355469 265.988281 C 48.710938 269.78125 47.710938 274 46.710938 278.144531 Z M 114.070312 237.601562 C 113.5 241.105469 111.78125 244.539062 111.210938 247.898438 C 112.570312 247.898438 114 247.898438 115.355469 247.898438 C 115.355469 244.464844 114.640625 241.035156 114.070312 237.601562 Z M 63.945312 285.367188 C 73.453125 282.222656 86.96875 284.511719 92.402344 293.589844 C 93.546875 290.945312 92.617188 287.726562 92.332031 284.867188 C 92.046875 281.648438 91.257812 279.433594 88.398438 277.503906 C 84.324219 274.785156 79.03125 274 74.242188 273.710938 C 71.882812 273.570312 69.449219 273.496094 67.089844 273.640625 C 64.230469 273.785156 61.726562 274.855469 59.007812 275.644531 C 55.792969 276.5 52.574219 277.144531 49.355469 278.003906 C 48.070312 278.359375 45.207031 279.789062 45.351562 279.71875 C 40.273438 282.9375 38.058594 289.371094 39.773438 295.023438 C 41.277344 300.097656 43.921875 304.675781 46.425781 309.394531 C 46.996094 298.738281 53.574219 288.800781 63.945312 285.367188 Z M 59.082031 321.121094 C 59.082031 320.40625 57.9375 320.191406 57.292969 319.476562 C 56.648438 318.761719 56.007812 316.546875 55.578125 315.113281 C 53.859375 309.324219 56.863281 303.246094 61.15625 299.527344 C 65.515625 295.738281 71.738281 293.734375 77.242188 292.234375 C 81.964844 290.945312 86.753906 291.589844 91.1875 293.449219 C 82.964844 282.363281 64.371094 282.4375 54.789062 291.804688 C 50.429688 296.09375 45.421875 305.675781 47.425781 311.898438 C 48.925781 316.761719 53.503906 322.550781 59.082031 321.121094 C 58.867188 321.121094 58.507812 321.265625 59.082031 321.121094 Z M 97.335938 337.710938 C 96.835938 332.207031 96.265625 326.769531 95.765625 321.265625 C 95.050781 314.042969 94.40625 306.75 93.691406 299.527344 C 93.617188 298.667969 93.832031 296.164062 93.332031 295.378906 C 92.046875 293.519531 86.398438 292.589844 84.25 292.375 C 82.679688 292.234375 80.960938 292.160156 79.390625 292.445312 C 69.449219 293.949219 54.578125 300.957031 55.933594 313.183594 C 56.363281 317.261719 59.222656 319.335938 61.511719 321.621094 C 64.800781 324.910156 68.378906 327.484375 72.597656 329.417969 C 79.675781 333.777344 89.398438 335.496094 97.335938 337.710938 Z M 98.910156 338.785156 C 99.054688 340.144531 97.980469 344.933594 99.484375 345.863281 C 100.199219 346.292969 102.699219 345.863281 103.488281 345.863281 C 109.921875 345.863281 116.429688 345.863281 122.867188 345.863281 C 144.890625 345.933594 166.914062 345.933594 188.867188 346.007812 C 210.890625 346.078125 232.914062 346.078125 254.9375 346.148438 C 261.304688 346.148438 267.667969 346.148438 274.03125 346.148438 C 274.675781 346.148438 277.605469 346.433594 277.75 345.792969 C 278.109375 344.363281 278.464844 339.929688 278.75 337.78125 C 280.253906 323.910156 281.824219 310.039062 283.328125 296.164062 C 283.46875 295.234375 283.46875 294.664062 283.613281 293.449219 C 283.898438 291.160156 284.113281 288.65625 284.398438 286.296875 C 284.757812 282.792969 285.1875 279.363281 285.542969 275.859375 C 286.1875 269.992188 287.617188 263.488281 287.117188 257.621094 C 286.472656 249.898438 279.179688 248.542969 272.886719 248.542969 C 255.796875 248.542969 238.636719 248.542969 221.546875 248.542969 C 183.289062 248.542969 145.03125 248.46875 106.777344 248.542969 C 103.628906 248.542969 100.414062 248.398438 97.335938 249.183594 C 91.257812 250.757812 90.757812 256.621094 91.257812 261.84375 C 92.1875 271.710938 93.476562 281.722656 94.046875 291.589844 C 94.90625 307.035156 97.410156 323.625 98.910156 338.785156 Z M 364.773438 347.363281 C 354.121094 347.292969 277.605469 347.363281 266.953125 347.4375 C 229.054688 347.578125 92.691406 347.078125 91.042969 347.078125 C 87.183594 347.078125 14.03125 346.648438 10.171875 346.648438 C 11.027344 348.652344 11.527344 350.65625 12.386719 352.65625 C 13.246094 354.660156 14.101562 358.449219 15.605469 360.09375 C 16.464844 361.023438 16.035156 360.664062 17.464844 360.808594 C 22.46875 361.308594 355.980469 360.523438 360.484375 360.449219 C 360.839844 360.449219 362.269531 360.664062 362.558594 360.449219 C 363.273438 359.878906 363.34375 354.300781 363.558594 353.300781 C 363.988281 351.226562 364.417969 349.296875 364.773438 347.363281 Z M 50.355469 265.558594 C 50.285156 265.632812 50.285156 265.773438 50.214844 265.847656 C 49.929688 266.777344 52.789062 261.125 50.355469 265.558594 Z M 282.398438 174.460938 C 282.398438 174.460938 282.328125 174.386719 282.328125 174.386719 C 282.328125 174.460938 282.398438 174.460938 282.46875 174.53125 C 282.46875 174.53125 282.46875 174.460938 282.398438 174.460938 Z M 335.027344 292.804688 C 335.027344 292.660156 335.027344 292.519531 335.027344 292.445312 C 335.027344 292.589844 334.957031 293.164062 334.882812 293.734375 C 334.957031 293.449219 335.027344 293.089844 335.027344 292.804688 Z M 335.027344 292.804688 " fill-opacity="1" fill-rule="nonzero"/></g><path fill="#000000" d="M 199.449219 299.097656 C 199.449219 305.03125 194.585938 309.894531 188.652344 309.894531 C 182.71875 309.894531 177.855469 305.03125 177.855469 299.097656 C 177.855469 293.164062 182.71875 288.300781 188.652344 288.300781 C 194.585938 288.300781 199.449219 293.164062 199.449219 299.097656 Z M 199.449219 299.097656 " fill-opacity="1" fill-rule="nonzero"/></svg>